<?xml version="1.0" encoding="utf-8"?>
<!-- Generator: Adobe Illustrator 24.0.3, SVG Export Plug-In . SVG Version: 6.00 Build 0)  -->
<svg version="1.1" id="Layer_1" xmlns="http://www.w3.org/2000/svg" xmlns:xlink="http://www.w3.org/1999/xlink" x="0px" y="0px"
	 viewBox="0 0 500 500" style="enable-background:new 0 0 500 500;" xml:space="preserve">
<style type="text/css">
	.st0{fill:#FFFFFF;stroke:#000000;stroke-width:3;stroke-linecap:round;stroke-linejoin:round;stroke-miterlimit:10;}
	.st1{fill:#F291E9;stroke:#000000;stroke-miterlimit:10;}
	.st2{fill:#FFFFFF;stroke:#000000;stroke-width:3;stroke-miterlimit:10;}
</style>
<path class="st0" d="M196.17,415.58c-10.45,7.42-43.04,23.75-38.07,35.11c6.05,13.83,42.44,6.72,63.89-16.31L196.17,415.58z"/>
<path class="st0" d="M196.17,415.58c17.56,31.47,90.03,24.25,86.53,12.96c-10.76-34.72,0.09-52.51,9.7-57.11
	c-16.76,9.99-18.3,36.92-7.28,64.47c1.18,2.94-38.84,2.92-24.36,21.7c12.26,15.9,97.13,8.43,105.41-41.56
	c14.46-87.24-40.6-131.99-117.03-130.32c-64.55,1.41-117.91-2.59-82.44,112.92c0,0-10.27,15.83-2.65,24.64
	c7.62,8.82,34.52,5.65,34.52-19.2c0-24.84-18.45-62.51-18.45-62.51"/>
<ellipse class="st0" cx="387.76" cy="412.05" rx="21.13" ry="23.8"/>
<path class="st0" d="M237.86,345.58c1.88,36.46-27.59,63.01-20.9,73.29c14.39,22.12,48.44,3.91,38.59-17.99
	c-3.86-8.58,24.78-32.06,13.56-55.3"/>
<path class="st0" d="M180.54,189.38c-22.59,5.55-26.29,15.25-37.31,35.6c-10.49,7.72-16.91,18.4-17.21,36.91
	c-0.49,29.47,44.81,67.8,109.06,67.78c56.84-0.02,99.09-9.45,97.54-50.21c-0.57-14.99-3.74-25.52-13.7-38
	c-16.9-21.16-7.35-44.43-77.07-55.61C223.46,183.25,195.45,185.71,180.54,189.38z"/>
<circle cx="172.9" cy="243.38" r="7.64"/>
<circle cx="269" cy="261.89" r="9.72"/>
<ellipse transform="matrix(0.0959 -0.9954 0.9954 0.0959 -94.2646 467.8058)" class="st1" cx="210.39" cy="285.79" rx="6.52" ry="11.99"/>
<path class="st2" d="M278.73,195.34c-4.27-11.66,10.63-48.68,15.16-50.67c18.13-8,42.15,11.61,31.65,30.45
	c-15.66,28.12-21.01,25.13-30.74,29.51L278.73,195.34z"/>
<path class="st2" d="M328.1,166.3c-0.14,7.02-58.61,174.12-112.68,155.37c-28.95-10.04,65.7-178.42,94.21-179.31
	C324.52,141.89,328.34,154.04,328.1,166.3z"/>
<path class="st2" d="M182.4,187.91c4.27-11.66-10.63-48.68-15.16-50.67c-18.13-8-42.15,11.61-31.65,30.45
	c15.66,28.12,21.01,25.13,30.74,29.51L182.4,187.91z"/>
<path class="st2" d="M158.1,135.4c-9.83-1.36-29.07,14.3-24.98,27.15c13.46,42.23,43.53,172.61,96.21,149.49
	C264.66,296.54,174.19,137.63,158.1,135.4z"/>
</svg>
