<?xml version="1.0" encoding="utf-8"?>
<!-- Generator: Adobe Illustrator 24.0.3, SVG Export Plug-In . SVG Version: 6.00 Build 0)  -->
<svg version="1.1" id="Layer_1" xmlns="http://www.w3.org/2000/svg" xmlns:xlink="http://www.w3.org/1999/xlink" x="0px" y="0px"
	 viewBox="0 0 500 500" style="enable-background:new 0 0 500 500;" xml:space="preserve">
<style type="text/css">
	.st0{fill:#FFFFFF;stroke:#000000;stroke-width:3;stroke-linecap:round;stroke-linejoin:round;stroke-miterlimit:10;}
	.st1{fill:#F291E9;stroke:#000000;stroke-miterlimit:10;}
	.st2{fill:#F1BAF4;stroke:#000000;stroke-miterlimit:10;}
	.st3{fill:#FFFFFF;stroke:#000000;stroke-width:3;stroke-miterlimit:10;}
</style>
<g>
	<path class="st0" d="M199.9,429.94c-10.45,7.42-43.04,23.75-38.07,35.11c6.05,13.83,42.44,6.72,63.89-16.31L199.9,429.94z"/>
	<path class="st0" d="M199.9,429.94c17.56,31.47,90.03,24.25,86.53,12.96c-10.76-34.72,0.09-52.51,9.7-57.11
		c-16.76,9.99-18.3,36.92-7.28,64.47c1.18,2.94-38.84,2.92-24.36,21.7c12.26,15.9,97.13,8.43,105.41-41.56
		c14.46-87.24-40.6-131.99-117.03-130.32c-64.55,1.41-117.91-2.59-82.44,112.92c0,0-10.27,15.83-2.65,24.64s34.52,5.65,34.52-19.2
		c0-24.84-18.45-62.51-18.45-62.51"/>
	<path class="st0" d="M332.62,279.46c-0.57-14.99-3.74-25.52-13.7-38c-16.9-21.16-7.35-44.43-77.07-55.61
		c-18.39-2.59-32.54-2.72-43.74-1.14l0.01,0c6.69-43.63-5.18-91.53-17.57-112.04c-8.45-13.98-53.48-61.39-78.97-50.48
		c-53.71,23,61.14,169.2,78.97,167.19c-21.93,7.77-26.29,15.25-37.31,35.6c-10.49,7.72-16.91,18.4-17.21,36.91
		c-0.49,29.47,44.81,67.8,109.06,67.78C291.92,329.65,334.17,320.22,332.62,279.46z"/>
	<circle cx="172.9" cy="243.38" r="7.64"/>
	<circle cx="269" cy="261.89" r="9.72"/>
	
		<ellipse transform="matrix(0.0959 -0.9954 0.9954 0.0959 -94.2646 467.8058)" class="st1" cx="210.39" cy="285.79" rx="6.52" ry="11.99"/>
	<path class="st2" d="M169.68,101.55c15.99,34.5,15.98,66.77,11.92,70.35c-4.8,4.24-29.99-20.07-45.97-54.57
		s-25.56-58.67-16.16-63.02S153.69,67.06,169.68,101.55z"/>
	<g>
		<path class="st3" d="M278.73,195.34c-4.27-11.66,9.63-54.2,14.57-54.2s27.29,33.55,27.29,33.55s-16.99,29.47-25.79,29.94
			L278.73,195.34z"/>
		<path class="st3" d="M285.96,154.29c-2.09,6.71,42.22,209.9,95.06,159.69C416.85,279.93,312.54,69.01,285.96,154.29z"/>
	</g>
	<ellipse class="st0" cx="391.49" cy="426.41" rx="21.13" ry="23.8"/>
	<path class="st0" d="M241.59,359.93c1.88,36.46-27.59,63.01-20.9,73.29c14.39,22.12,48.44,3.91,38.59-17.99
		c-3.86-8.58,24.78-32.06,13.56-55.3"/>
</g>
</svg>
