<?xml version="1.0" encoding="utf-8"?>
<!-- Generator: Adobe Illustrator 24.0.3, SVG Export Plug-In . SVG Version: 6.00 Build 0)  -->
<svg version="1.1" id="Layer_1" xmlns="http://www.w3.org/2000/svg" xmlns:xlink="http://www.w3.org/1999/xlink" x="0px" y="0px"
	 viewBox="0 0 500 500" style="enable-background:new 0 0 500 500;" xml:space="preserve">
<style type="text/css">
	.st0{fill:#FFFFFF;stroke:#000000;stroke-width:3;stroke-linecap:round;stroke-linejoin:round;stroke-miterlimit:10;}
	.st1{fill:#F291E9;stroke:#000000;stroke-miterlimit:10;}
	.st2{fill:#F1BAF4;stroke:#000000;stroke-miterlimit:10;}
</style>
<path class="st0" d="M285.89,443.27c-27.22,17.6-67.77,11.1-85.99-13.34c0,0-41.88-41.02-16.03-74.01
	c-18.6,10.56-49.55,0.12-59.15,3.55c-8.21,2.94-13.59,2.55-16.78-2.4c-5.23-8.11-3.08-13.01,1.68-17.9
	c2.16-2.22-5.68-13.59-0.53-17.22c7.41-5.24,13.45,12.8,16.57,12.95c82.22,3.88,65.45-33.48,127.22-34.83
	c76.43-1.67,131.48,43.07,117.03,130.32c-8.28,49.99-93.15,57.46-105.41,41.56c-14.48-18.78,25.54-18.76,24.36-21.7
	c-11.03-27.56-7.89-53.02,7.28-64.47"/>
<ellipse class="st0" cx="391.49" cy="426.41" rx="21.13" ry="23.8"/>
<path class="st0" d="M241.59,359.93c1.88,36.46-27.59,63.01-20.9,73.29c14.39,22.12,48.44,3.91,38.59-17.99
	c-3.86-8.58,24.78-32.06,13.56-55.3"/>
<path class="st0" d="M204.02,434.77c-10.45,7.42-47.16,18.92-42.19,30.28c6.05,13.83,42.44,6.72,63.89-16.31L204.02,434.77z"/>
<path class="st0" d="M372.22,120.75c6.05-20.1,32.2-100.18-8.4-100.18c-65.22,0-89.35,163.11-85.08,174.77l0.03,0.02
	c-8.95-3.7-20.81-6.93-36.91-9.51c-18.39-2.59-32.54-2.72-43.74-1.14l0.01,0c6.69-43.63-5.18-91.53-17.57-112.04
	c-8.45-13.98-53.48-61.39-78.97-50.48c-53.71,23,61.14,169.2,78.97,167.19c-21.93,7.77-26.29,15.25-37.31,35.6
	c-10.49,7.72-16.91,18.4-17.21,36.91c-0.49,29.47,44.81,67.8,109.06,67.78c56.84-0.02,99.09-9.45,97.54-50.21
	c-0.57-14.99-3.74-25.52-13.7-38c-10-12.52-10.74-25.78-24.12-36.84l0,0C303.6,204.16,365.1,144.39,372.22,120.75z"/>
<circle cx="172.9" cy="243.38" r="7.64"/>
<circle cx="269" cy="261.89" r="9.72"/>
<ellipse transform="matrix(0.0959 -0.9954 0.9954 0.0959 -94.2646 467.8058)" class="st1" cx="210.39" cy="285.79" rx="6.52" ry="11.99"/>
<path class="st2" d="M169.68,101.55c15.99,34.5,15.98,66.77,11.92,70.35c-4.8,4.24-29.99-20.07-45.97-54.57
	s-25.56-58.67-16.16-63.02S153.69,67.06,169.68,101.55z"/>
<path class="st2" d="M307.61,113.32c-15.99,34.5-15.98,66.77-11.92,70.35c4.8,4.24,29.99-20.07,45.97-54.57s25.56-58.67,16.16-63.02
	S323.6,78.83,307.61,113.32z"/>
</svg>
