<?xml version="1.0" encoding="utf-8"?>
<!-- Generator: Adobe Illustrator 24.0.3, SVG Export Plug-In . SVG Version: 6.00 Build 0)  -->
<svg version="1.1" id="Layer_1" xmlns="http://www.w3.org/2000/svg" xmlns:xlink="http://www.w3.org/1999/xlink" x="0px" y="0px"
	 viewBox="0 0 300 300" style="enable-background:new 0 0 300 300;" xml:space="preserve">
<style type="text/css">
	.st0{fill:#EF9F20;stroke:#000000;stroke-width:2;stroke-miterlimit:10;}
	.st1{fill:#D39C22;stroke:#000000;stroke-width:2;stroke-linecap:round;stroke-linejoin:round;stroke-miterlimit:10;}
	.st2{fill:#5EA03C;stroke:#000000;stroke-width:2.391;stroke-miterlimit:10;}
	.st3{fill:#508C2C;}
	.st4{fill:#5EA03C;stroke:#000000;stroke-width:2.1173;stroke-miterlimit:10;}
	.st5{fill:#5EA03C;stroke:#000000;stroke-width:2.1888;stroke-miterlimit:10;}
</style>
<path class="st0" d="M168.32,76.05c-13.92-7.73-42.78-13.4-58.25,1.55c-14.66,14.17-21.35,41.63-22.27,70.09
	c16.71-0.57,33.31,6.17,49.2,0.31c16.81-5.93,32.64-14.79,50.4-20.79C183.56,104.43,176.88,80.8,168.32,76.05z"/>
<path class="st1" d="M119.21,85.68c10.71,6.83,24.63,9.66,37.69-1.98"/>
<path class="st2" d="M126.4,87.39c-4.17-2.51-43.9-47.36-23.84-44.37S136.7,63.2,136.7,75.9S136.16,93.26,126.4,87.39z"/>
<path class="st3" d="M129.35,87.79c-2.97-2.11-31.34-39.81-17.02-37.3C126.64,53,136.7,67.46,136.7,78.14S136.32,92.73,129.35,87.79
	z"/>
<path class="st4" d="M141.91,89.55c-11.93,2.42,0.32-51.03,13.2-48.7s18.64,7.21,13.53,17.47S154.48,87,141.91,89.55z"/>
<path class="st3" d="M140.37,89.56c-8.14,2.09,0.22-44,9.01-41.99c8.8,2.01,12.73,6.22,9.24,15.07S148.95,87.36,140.37,89.56z"/>
<path class="st5" d="M137.37,89.39c-9.86,3.76-20.71-54.01-10.36-62.01c10.36-8,21.05-8.4,21.71,0S144.72,86.58,137.37,89.39z"/>
<path class="st3" d="M137.03,89.43c-5.51,2.91-11.57-41.73-5.78-47.91c5.78-6.18,11.75-6.49,12.13,0
	C143.75,48.01,141.14,87.26,137.03,89.43z"/>
<path class="st1" d="M133.42,133.43l-43.61-4.46C112.27,137.96,124.42,136.6,133.42,133.43z"/>
</svg>
