<?xml version="1.0" encoding="utf-8"?>
<!-- Generator: Adobe Illustrator 24.0.3, SVG Export Plug-In . SVG Version: 6.00 Build 0)  -->
<svg version="1.1" id="Layer_1" xmlns="http://www.w3.org/2000/svg" xmlns:xlink="http://www.w3.org/1999/xlink" x="0px" y="0px"
	 viewBox="0 0 300 300" style="enable-background:new 0 0 300 300;" xml:space="preserve">
<style type="text/css">
	.st0{fill:#EF9F20;stroke:#000000;stroke-width:2;stroke-miterlimit:10;}
	.st1{fill:#D39C22;stroke:#000000;stroke-width:2;stroke-linecap:round;stroke-linejoin:round;stroke-miterlimit:10;}
	.st2{fill:#5EA03C;stroke:#000000;stroke-width:2.391;stroke-miterlimit:10;}
	.st3{fill:#508C2C;}
	.st4{fill:#5EA03C;stroke:#000000;stroke-width:2.1173;stroke-miterlimit:10;}
	.st5{fill:#5EA03C;stroke:#000000;stroke-width:2.1888;stroke-miterlimit:10;}
</style>
<path class="st0" d="M115,100c12,7,25,18,39,13c9.32-4,17.77-9.32,27.09-13.61c-3.51-11.54-7.82-20.59-12.77-23.34
	c-13.92-7.73-42.78-13.4-58.25,1.55c-4.94,4.78-8.97,11.06-12.19,18.39c1.69,1.21,3.48,2.2,5.11,3.01C107,100,112,98,115,100z"/>
<path class="st1" d="M156.9,83.69l-37.69,1.98C129.92,92.51,143.84,95.33,156.9,83.69z"/>
<path class="st2" d="M126.4,87.39c9.76,5.88,10.3,1.22,10.3-11.48c0-12.71-14.08-29.9-34.14-32.89
	C82.5,40.03,122.24,84.88,126.4,87.39z"/>
<path class="st3" d="M129.35,87.79c6.97,4.94,7.35,1.03,7.35-9.65c0-10.68-10.05-25.13-24.37-27.65
	C98.01,47.98,126.37,85.68,129.35,87.79z"/>
<path class="st4" d="M141.91,89.55c12.57-2.55,21.62-20.96,26.73-31.23c5.11-10.26-0.64-15.14-13.53-17.47
	C142.22,38.52,129.98,91.97,141.91,89.55z"/>
<path class="st3" d="M140.37,89.56c8.58-2.2,14.76-18.08,18.25-26.93c3.49-8.85-0.44-13.06-9.24-15.07
	C140.58,45.56,132.22,91.65,140.37,89.56z"/>
<path class="st5" d="M137.37,89.39c7.35-2.81,12.03-53.61,11.36-62.01s-11.36-8-21.71,0S127.51,93.15,137.37,89.39z"/>
<path class="st3" d="M137.03,89.43c4.11-2.17,6.72-41.42,6.34-47.91s-6.34-6.18-12.13,0C125.46,47.7,131.53,92.34,137.03,89.43z"/>
</svg>
