<?xml version="1.0" encoding="utf-8"?>
<!-- Generator: Adobe Illustrator 23.0.1, SVG Export Plug-In . SVG Version: 6.00 Build 0)  -->
<svg version="1.1" id="Layer_1" xmlns="http://www.w3.org/2000/svg" xmlns:xlink="http://www.w3.org/1999/xlink" x="0px" y="0px"
	 viewBox="0 0 576.9 443.1" style="enable-background:new 0 0 576.9 443.1;" xml:space="preserve">
<style type="text/css">
	.st0{display:none;fill:#FFFFFF;stroke:#000000;stroke-width:3;stroke-linejoin:round;stroke-miterlimit:10;}
	.st1{fill:#FFFFFF;stroke:#000000;stroke-width:2.8226;stroke-linejoin:round;stroke-miterlimit:10;}
</style>
<path class="st0" d="M-197.6-6.7h-494.5c-17.8,0-32.4,14.6-32.4,32.4v276.2c0,17.8,14.6,32.4,32.4,32.4h388.8
	c50.3,19.9,80.6,56.6,63.4,102.8c43.9-70.6,43.5-102.8,43.5-102.8h-1.1c17.8,0,32.4-14.6,32.4-32.4V25.7
	C-165.2,7.9-179.8-6.7-197.6-6.7z"/>
<path class="st0" d="M550.3-114H55.8c-17.8,0-32.4-14.6-32.4-32.4v-276.2c0-17.8,14.6-32.4,32.4-32.4h388.8
	c3.6-52.1,72.3-84.1,100.4-99c-39.1,48-37.4,91,6.4,99h0.1c17.8,0,31.2,14.6,31.2,32.4v276.2C582.7-128.6,568.1-114,550.3-114z"/>
<path class="st1" d="M538.3,8.2H39.7c-16.1,0-29.2,13.1-29.2,29.2v269.9c0,16.1,13.1,29.2,29.2,29.2h394.4c3.8,0,7,2.8,7.5,6.6
	c8.2,63.8,41.1,76.8,84.4,92.1c-38.9-46.2-28-73.2-3.8-95.4c2.4-2.2,5.5-3.4,8.8-3.4h7.3c16.1,0,29.2-13.1,29.2-29.2V37.5
	C567.5,21.4,554.3,8.2,538.3,8.2z"/>
</svg>
