<?xml version="1.0" encoding="utf-8"?>
<!-- Generator: Adobe Illustrator 23.0.1, SVG Export Plug-In . SVG Version: 6.00 Build 0)  -->
<svg version="1.1" id="Layer_1" xmlns="http://www.w3.org/2000/svg" xmlns:xlink="http://www.w3.org/1999/xlink" x="0px" y="0px"
	 viewBox="0 0 792 612" style="enable-background:new 0 0 792 612;" xml:space="preserve">
<style type="text/css">
	.st0{fill:#FFFFFF;stroke:#000000;stroke-width:3;stroke-linejoin:round;stroke-miterlimit:10;}
</style>
<path class="st0" d="M-114.32,71.68h-494.49c-17.81,0-32.38,14.57-32.38,32.38v276.23c0,17.81,14.57,32.38,32.38,32.38h388.75
	c50.26,19.92,80.6,56.6,63.4,102.79c43.92-70.64,43.47-102.79,43.47-102.79h-1.13c17.81,0,32.38-14.57,32.38-32.38V104.06
	C-81.94,86.25-96.51,71.68-114.32,71.68z"/>
<path class="st0" d="M633.53,515.45H139.04c-17.81,0-32.38-14.57-32.38-32.38V206.85c0-17.81,14.57-32.38,32.38-32.38h388.75
	c3.57-52.12,72.28-84.12,100.45-99.02c-39.14,48.01-37.44,91,6.42,99.02h0.07c17.81,0,31.18,14.57,31.18,32.38v276.23
	C665.91,500.88,651.34,515.45,633.53,515.45z"/>
</svg>
