<?xml version="1.0" encoding="utf-8"?>
<!-- Generator: Adobe Illustrator 23.0.1, SVG Export Plug-In . SVG Version: 6.00 Build 0)  -->
<svg version="1.1" id="Layer_1" xmlns="http://www.w3.org/2000/svg" xmlns:xlink="http://www.w3.org/1999/xlink" x="0px" y="0px"
	 viewBox="0 0 733.1 96.9" style="enable-background:new 0 0 733.1 96.9;" xml:space="preserve">
<style type="text/css">
	.st0{fill:#EFE914;stroke:#FFFFFF;stroke-width:1.4744;stroke-miterlimit:10;}
	.st1{fill:#2F5EE0;stroke:#FFFFFF;stroke-width:1.4744;stroke-miterlimit:10;}
	.st2{fill:#2F5EE0;}
	.st3{fill:#EFE914;}
	.st4{fill:none;stroke:#000000;stroke-width:4.4232;stroke-miterlimit:10;}
	.st5{fill:#EF1616;}
</style>
<path class="st0" d="M-524.1-166.7c2.3-4,8.1-4,10.4,0l23.1,40.1l23.1,40.1c2.3,4-0.6,9-5.2,9h-46.3h-46.3c-4.6,0-7.5-5-5.2-9
	l23.1-40.1L-524.1-166.7z"/>
<path class="st0" d="M-394-166.7c2.3-4,8.1-4,10.4,0l23.1,40.1l23.1,40.1c2.3,4-0.6,9-5.2,9h-46.3h-46.3c-4.6,0-7.5-5-5.2-9
	l23.1-40.1L-394-166.7z"/>
<path class="st1" d="M-226-78.9h-65.5c-6.6,0-12-5.4-12-12v-65.5c0-6.6,5.4-12,12-12h65.5c6.6,0,12,5.4,12,12v65.5
	C-214-84.3-219.4-78.9-226-78.9z"/>
<path class="st1" d="M-95.8-78.9h-65.5c-6.6,0-12-5.4-12-12v-65.5c0-6.6,5.4-12,12-12h65.5c6.6,0,12,5.4,12,12v65.5
	C-83.8-84.3-89.2-78.9-95.8-78.9z"/>
<path class="st2" d="M389,758.6H183.9c-21.2,0-38.6-17.4-38.6-38.6V514.8c0-21.2,17.4-38.6,38.6-38.6H389
	c21.2,0,38.6,17.4,38.6,38.6V720C427.6,741.2,410.2,758.6,389,758.6z"/>
<path class="st0" d="M-130.9-32.3c-2.3-4-8.1-4-10.4,0l-23.1,40.1l-23.1,40.1c-2.3,4,0.6,9,5.2,9h46.3h46.3c4.6,0,7.5-5,5.2-9
	l-23.1-40.1L-130.9-32.3z"/>
<path class="st0" d="M-261-32.3c-2.3-4-8.1-4-10.4,0l-23.1,40.1l-23.1,40.1c-2.3,4,0.6,9,5.2,9h46.3h46.3c4.6,0,7.5-5,5.2-9
	l-23.1-40.1L-261-32.3z"/>
<path class="st1" d="M-429.1,55.5h65.5c6.6,0,12-5.4,12-12V-22c0-6.6-5.4-12-12-12h-65.5c-6.6,0-12,5.4-12,12v65.5
	C-441.1,50.1-435.7,55.5-429.1,55.5z"/>
<path class="st1" d="M-559.2,55.5h65.5c6.6,0,12-5.4,12-12V-22c0-6.6-5.4-12-12-12h-65.5c-6.6,0-12,5.4-12,12v65.5
	C-571.2,50.1-565.8,55.5-559.2,55.5z"/>
<path class="st0" d="M-524.1,102.1c2.3-4,8.1-4,10.4,0l23.1,40.1l23.1,40.1c2.3,4-0.6,9-5.2,9h-46.3h-46.3c-4.6,0-7.5-5-5.2-9
	l23.1-40.1L-524.1,102.1z"/>
<path class="st0" d="M-394,102.1c2.3-4,8.1-4,10.4,0l23.1,40.1l23.1,40.1c2.3,4-0.6,9-5.2,9h-46.3h-46.3c-4.6,0-7.5-5-5.2-9
	l23.1-40.1L-394,102.1z"/>
<path class="st1" d="M-95.8,189.9h-65.5c-6.6,0-12-5.4-12-12v-65.5c0-6.6,5.4-12,12-12h65.5c6.6,0,12,5.4,12,12v65.5
	C-83.8,184.5-89.2,189.9-95.8,189.9z"/>
<path class="st2" d="M398.8,90.7h-61.6c-6.6,0-12-5.4-12-12V17c0-6.6,5.4-12,12-12h61.6c6.6,0,12,5.4,12,12v61.6
	C410.8,85.3,405.4,90.7,398.8,90.7z"/>
<path class="st0" d="M-130.9,236.5c-2.3-4-8.1-4-10.4,0l-23.1,40.1l-23.1,40.1c-2.3,4,0.6,9,5.2,9h46.3h46.3c4.6,0,7.5-5,5.2-9
	l-23.1-40.1L-130.9,236.5z"/>
<path class="st3" d="M531,8.3c-2.1-3.7-7.4-3.7-9.6,0l-21.3,36.8L479,81.9c-2.1,3.7,0.5,8.3,4.8,8.3h42.5h42.5
	c4.3,0,6.9-4.6,4.8-8.3l-21.3-36.8L531,8.3z"/>
<path class="st3" d="M1017.4,402.4c-9.8-16.9-34.2-16.9-43.9,0l-97.7,169.2L778,740.9c-9.8,16.9,2.4,38.1,22,38.1h195.4h195.4
	c19.5,0,31.7-21.1,22-38.1l-97.7-169.2L1017.4,402.4z"/>
<path class="st0" d="M-261,236.5c-2.3-4-8.1-4-10.4,0l-23.1,40.1l-23.1,40.1c-2.3,4,0.6,9,5.2,9h46.3h46.3c4.6,0,7.5-5,5.2-9
	l-23.1-40.1L-261,236.5z"/>
<path class="st1" d="M-429.1,324.3h65.5c6.6,0,12-5.4,12-12v-65.5c0-6.6-5.4-12-12-12h-65.5c-6.6,0-12,5.4-12,12v65.5
	C-441.1,318.9-435.7,324.3-429.1,324.3z"/>
<path class="st1" d="M-559.2,324.3h65.5c6.6,0,12-5.4,12-12v-65.5c0-6.6-5.4-12-12-12h-65.5c-6.6,0-12,5.4-12,12v65.5
	C-571.2,318.9-565.8,324.3-559.2,324.3z"/>
<line class="st4" x1="-305.6" y1="191.3" x2="-211.8" y2="191.3"/>
<circle class="st5" cx="51.6" cy="47.9" r="44.2"/>
<circle class="st5" cx="209.8" cy="47.9" r="44.2"/>
<circle class="st5" cx="684.5" cy="47.9" r="44.2"/>
</svg>
