<?xml version="1.0" encoding="utf-8"?>
<!-- Generator: Adobe Illustrator 23.0.1, SVG Export Plug-In . SVG Version: 6.00 Build 0)  -->
<svg version="1.1" id="Layer_1" xmlns="http://www.w3.org/2000/svg" xmlns:xlink="http://www.w3.org/1999/xlink" x="0px" y="0px"
	 viewBox="0 0 158.2 250.3" style="enable-background:new 0 0 158.2 250.3;" xml:space="preserve">
<style type="text/css">
	.st0{fill:#EA6EBB;stroke:#000000;stroke-linecap:round;stroke-linejoin:round;stroke-miterlimit:10;}
</style>
<path class="st0" d="M156,44.4c-0.5-5.8-20.8-29.2-30.4-33.9c-5.8-2.8-21.7-11.3-22.5-7.2C98,27.3,57.5,29,52.9,4.4
	c-0.8-4.1-15.1,4.2-20.8,7C22.5,16.2,2.5,38.6,2,44.4c-0.5,5.6,10.3,16.1,17.6,18.1l11.3-5.4c0,0,8.4,46.1,6.6,61.5
	c-3.1,26.5-26.4,106.1-26.4,106.1s33.1,22.4,68,22.4c23.9,0,67.9-22.4,67.9-22.4s-25-79.6-28.1-106.1c-1.8-15.4,8.3-61.5,8.3-61.5
	l11.3,5.4C145.8,60.5,156.5,49.9,156,44.4z"/>
</svg>
