<?xml version="1.0" encoding="utf-8"?>
<!-- Generator: Adobe Illustrator 23.0.1, SVG Export Plug-In . SVG Version: 6.00 Build 0)  -->
<svg version="1.1" id="Layer_1" xmlns="http://www.w3.org/2000/svg" xmlns:xlink="http://www.w3.org/1999/xlink" x="0px" y="0px"
	 viewBox="0 0 253.6 251.8" style="enable-background:new 0 0 253.6 251.8;" xml:space="preserve">
<style type="text/css">
	.st0{fill:#EF7B1B;stroke:#000000;stroke-width:1.5272;stroke-miterlimit:10;}
</style>
<path class="st0" d="M251,73.5c-0.8-9.3-27.8-52.9-43.3-60.6c-9.3-4.6-47-13.5-48.9-7.1c-8.1,27.4-56,25.1-63.5,0
	c-1.9-6.4-39.7,2.5-48.9,7.1C30.8,20.5,3.8,64.2,3,73.5c-0.8,8.9,16.5,26,28.3,29.1l18.1-8.7L32.9,234.1c0,0,45.4,14,101.5,14
	c38.4,0,86.7-14,86.7-14L204.5,93.9l18.1,8.7C234.5,99.5,251.8,82.4,251,73.5z"/>
</svg>
