<?xml version="1.0" encoding="utf-8"?>
<!-- Generator: Adobe Illustrator 23.0.1, SVG Export Plug-In . SVG Version: 6.00 Build 0)  -->
<svg version="1.1" id="Layer_1" xmlns="http://www.w3.org/2000/svg" xmlns:xlink="http://www.w3.org/1999/xlink" x="0px" y="0px"
	 viewBox="0 0 792 612" style="enable-background:new 0 0 792 612;" xml:space="preserve">
<style type="text/css">
	.st0{fill:#EFE914;stroke:#FFFFFF;stroke-width:1.4744;stroke-miterlimit:10;}
	.st1{fill:#2F5EE0;stroke:#FFFFFF;stroke-width:1.4744;stroke-miterlimit:10;}
	.st2{fill:#2F5EE0;stroke:#000000;stroke-width:4.4232;stroke-miterlimit:10;}
</style>
<path class="st0" d="M209.16,30.76c2.31-4,8.09-4,10.4,0l23.13,40.06l23.13,40.06c2.31,4-0.58,9.01-5.2,9.01h-46.26h-46.26
	c-4.62,0-7.51-5-5.2-9.01l23.13-40.06L209.16,30.76z"/>
<path class="st0" d="M339.27,30.76c2.31-4,8.09-4,10.4,0l23.13,40.06l23.13,40.06c2.31,4-0.58,9.01-5.2,9.01h-46.26h-46.26
	c-4.62,0-7.51-5-5.2-9.01l23.13-40.06L339.27,30.76z"/>
<path class="st1" d="M507.32,118.55h-65.47c-6.6,0-12-5.4-12-12V41.09c0-6.6,5.4-12,12-12h65.47c6.6,0,12,5.4,12,12v65.47
	C519.32,113.15,513.92,118.55,507.32,118.55z"/>
<path class="st1" d="M637.43,118.55h-65.47c-6.6,0-12-5.4-12-12V41.09c0-6.6,5.4-12,12-12h65.47c6.6,0,12,5.4,12,12v65.47
	C649.43,113.15,644.03,118.55,637.43,118.55z"/>
<path class="st0" d="M602.36,165.18c-2.31-4-8.09-4-10.4,0l-23.13,40.06L545.7,245.3c-2.31,4,0.58,9.01,5.2,9.01h46.26h46.26
	c4.62,0,7.51-5,5.2-9.01l-23.13-40.06L602.36,165.18z"/>
<path class="st0" d="M472.25,165.18c-2.31-4-8.09-4-10.4,0l-23.13,40.06l-23.13,40.06c-2.31,4,0.58,9.01,5.2,9.01h46.26h46.26
	c4.62,0,7.51-5,5.2-9.01l-23.13-40.06L472.25,165.18z"/>
<path class="st1" d="M304.2,252.97h65.47c6.6,0,12-5.4,12-12v-65.47c0-6.6-5.4-12-12-12H304.2c-6.6,0-12,5.4-12,12v65.47
	C292.2,247.57,297.6,252.97,304.2,252.97z"/>
<path class="st1" d="M174.09,252.97h65.47c6.6,0,12-5.4,12-12v-65.47c0-6.6-5.4-12-12-12h-65.47c-6.6,0-12,5.4-12,12v65.47
	C162.09,247.57,167.49,252.97,174.09,252.97z"/>
<path class="st0" d="M209.16,299.6c2.31-4,8.09-4,10.4,0l23.13,40.06l23.13,40.06c2.31,4-0.58,9.01-5.2,9.01h-46.26h-46.26
	c-4.62,0-7.51-5-5.2-9.01l23.13-40.06L209.16,299.6z"/>
<path class="st0" d="M339.27,299.6c2.31-4,8.09-4,10.4,0l23.13,40.06l23.13,40.06c2.31,4-0.58,9.01-5.2,9.01h-46.26h-46.26
	c-4.62,0-7.51-5-5.2-9.01l23.13-40.06L339.27,299.6z"/>
<path class="st1" d="M637.43,387.4h-65.47c-6.6,0-12-5.4-12-12v-65.47c0-6.6,5.4-12,12-12h65.47c6.6,0,12,5.4,12,12v65.47
	C649.43,382,644.03,387.4,637.43,387.4z"/>
<path class="st0" d="M602.36,434.02c-2.31-4-8.09-4-10.4,0l-23.13,40.06l-23.13,40.06c-2.31,4,0.58,9.01,5.2,9.01h46.26h46.26
	c4.62,0,7.51-5,5.2-9.01l-23.13-40.06L602.36,434.02z"/>
<path class="st0" d="M472.25,434.02c-2.31-4-8.09-4-10.4,0l-23.13,40.06l-23.13,40.06c-2.31,4,0.58,9.01,5.2,9.01h46.26h46.26
	c4.62,0,7.51-5,5.2-9.01l-23.13-40.06L472.25,434.02z"/>
<path class="st1" d="M304.2,521.82h65.47c6.6,0,12-5.4,12-12v-65.47c0-6.6-5.4-12-12-12H304.2c-6.6,0-12,5.4-12,12v65.47
	C292.2,516.42,297.6,521.82,304.2,521.82z"/>
<path class="st1" d="M174.09,521.82h65.47c6.6,0,12-5.4,12-12v-65.47c0-6.6-5.4-12-12-12h-65.47c-6.6,0-12,5.4-12,12v65.47
	C162.09,516.42,167.49,521.82,174.09,521.82z"/>
<line class="st2" x1="427.71" y1="388.73" x2="521.46" y2="388.73"/>
</svg>
