<?xml version="1.0" encoding="utf-8"?>
<!-- Generator: Adobe Illustrator 23.0.1, SVG Export Plug-In . SVG Version: 6.00 Build 0)  -->
<svg version="1.1" id="Layer_1" xmlns="http://www.w3.org/2000/svg" xmlns:xlink="http://www.w3.org/1999/xlink" x="0px" y="0px"
	 viewBox="0 0 579.5 362.1" style="enable-background:new 0 0 579.5 362.1;" xml:space="preserve">
<style type="text/css">
	.st0{display:none;fill:#EFE914;stroke:#FFFFFF;stroke-width:1.4744;stroke-miterlimit:10;}
	.st1{display:none;fill:#2F5EE0;stroke:#FFFFFF;stroke-width:1.4744;stroke-miterlimit:10;}
	.st2{display:none;fill:#2F5EE0;}
	.st3{display:none;fill:#EFE914;}
	.st4{display:none;fill:none;stroke:#000000;stroke-width:4.4232;stroke-miterlimit:10;}
	.st5{display:none;fill:#EF1616;}
	.st6{display:none;fill:none;stroke:#000000;stroke-width:3;stroke-miterlimit:10;}
	.st7{fill:#EF7B1B;stroke:#000000;stroke-width:1.6844;stroke-miterlimit:10;}
	.st8{fill:#E53535;stroke:#000000;stroke-width:1.6582;stroke-miterlimit:10;}
</style>
<path class="st0" d="M-618.4-194.3c2.3-4,8.1-4,10.4,0l23.1,40.1l23.1,40.1c2.3,4-0.6,9-5.2,9h-46.3h-46.3c-4.6,0-7.5-5-5.2-9
	l23.1-40.1L-618.4-194.3z"/>
<path class="st0" d="M-488.3-194.3c2.3-4,8.1-4,10.4,0l23.1,40.1l23.1,40.1c2.3,4-0.6,9-5.2,9h-46.3h-46.3c-4.6,0-7.5-5-5.2-9
	l23.1-40.1L-488.3-194.3z"/>
<path class="st1" d="M-320.3-106.5h-65.5c-6.6,0-12-5.4-12-12V-184c0-6.6,5.4-12,12-12h65.5c6.6,0,12,5.4,12,12v65.5
	C-308.3-111.9-313.7-106.5-320.3-106.5z"/>
<path class="st1" d="M-190.2-106.5h-65.5c-6.6,0-12-5.4-12-12V-184c0-6.6,5.4-12,12-12h65.5c6.6,0,12,5.4,12,12v65.5
	C-178.2-111.9-183.6-106.5-190.2-106.5z"/>
<path class="st2" d="M294.7,731H89.5c-21.2,0-38.6-17.4-38.6-38.6V487.2c0-21.2,17.4-38.6,38.6-38.6h205.1
	c21.2,0,38.6,17.4,38.6,38.6v205.1C333.3,713.6,315.9,731,294.7,731z"/>
<path class="st0" d="M-225.2-59.9c-2.3-4-8.1-4-10.4,0l-23.1,40.1l-23.1,40.1c-2.3,4,0.6,9,5.2,9h46.3h46.3c4.6,0,7.5-5,5.2-9
	l-23.1-40.1L-225.2-59.9z"/>
<path class="st0" d="M-355.3-59.9c-2.3-4-8.1-4-10.4,0l-23.1,40.1L-412,20.2c-2.3,4,0.6,9,5.2,9h46.3h46.3c4.6,0,7.5-5,5.2-9
	l-23.1-40.1L-355.3-59.9z"/>
<path class="st1" d="M-523.4,27.9h65.5c6.6,0,12-5.4,12-12v-65.5c0-6.6-5.4-12-12-12h-65.5c-6.6,0-12,5.4-12,12v65.5
	C-535.4,22.5-530,27.9-523.4,27.9z"/>
<path class="st1" d="M-653.5,27.9h65.5c6.6,0,12-5.4,12-12v-65.5c0-6.6-5.4-12-12-12h-65.5c-6.6,0-12,5.4-12,12v65.5
	C-665.5,22.5-660.1,27.9-653.5,27.9z"/>
<path class="st0" d="M-618.4,74.5c2.3-4,8.1-4,10.4,0l23.1,40.1l23.1,40.1c2.3,4-0.6,9-5.2,9h-46.3h-46.3c-4.6,0-7.5-5-5.2-9
	l23.1-40.1L-618.4,74.5z"/>
<path class="st0" d="M-488.3,74.5c2.3-4,8.1-4,10.4,0l23.1,40.1l23.1,40.1c2.3,4-0.6,9-5.2,9h-46.3h-46.3c-4.6,0-7.5-5-5.2-9
	l23.1-40.1L-488.3,74.5z"/>
<path class="st1" d="M-190.2,162.3h-65.5c-6.6,0-12-5.4-12-12V84.8c0-6.6,5.4-12,12-12h65.5c6.6,0,12,5.4,12,12v65.5
	C-178.2,156.9-183.6,162.3-190.2,162.3z"/>
<path class="st0" d="M-225.2,208.9c-2.3-4-8.1-4-10.4,0l-23.1,40.1l-23.1,40.1c-2.3,4,0.6,9,5.2,9h46.3h46.3c4.6,0,7.5-5,5.2-9
	l-23.1-40.1L-225.2,208.9z"/>
<path class="st3" d="M435.3-250.8c-2.1-3.7-7.4-3.7-9.6,0l-21.3,36.8l-21.3,36.8c-2.1,3.7,0.5,8.3,4.8,8.3h42.5H473
	c4.3,0,6.9-4.6,4.8-8.3l-21.3-36.8L435.3-250.8z"/>
<path class="st3" d="M923.1,374.8c-9.8-16.9-34.2-16.9-43.9,0L781.4,544l-97.7,169.2c-9.8,16.9,2.4,38.1,22,38.1h195.4h195.4
	c19.5,0,31.7-21.1,22-38.1L1020.8,544L923.1,374.8z"/>
<path class="st0" d="M-355.3,208.9c-2.3-4-8.1-4-10.4,0l-23.1,40.1L-412,289c-2.3,4,0.6,9,5.2,9h46.3h46.3c4.6,0,7.5-5,5.2-9
	l-23.1-40.1L-355.3,208.9z"/>
<path class="st1" d="M-523.4,296.7h65.5c6.6,0,12-5.4,12-12v-65.5c0-6.6-5.4-12-12-12h-65.5c-6.6,0-12,5.4-12,12v65.5
	C-535.4,291.3-530,296.7-523.4,296.7z"/>
<path class="st1" d="M-653.5,296.7h65.5c6.6,0,12-5.4,12-12v-65.5c0-6.6-5.4-12-12-12h-65.5c-6.6,0-12,5.4-12,12v65.5
	C-665.5,291.3-660.1,296.7-653.5,296.7z"/>
<line class="st4" x1="-399.9" y1="163.6" x2="-306.1" y2="163.6"/>
<circle class="st5" cx="-44.2" cy="-211.2" r="44.2"/>
<circle class="st5" cx="114" cy="-211.2" r="44.2"/>
<circle class="st5" cx="588.7" cy="-211.2" r="44.2"/>
<line class="st6" x1="207.9" y1="-167" x2="324.5" y2="-167"/>
<path class="st7" d="M289,136.9c2.3-10-11.3-65-24.9-78.3c-8.2-7.9-44.8-30.1-48.9-24c-17.8,26-67.3,7.4-66.7-21.5
	c0.2-7.4-42.5-10.8-53.7-9.1c-18.8,2.8-62,39.5-66,48.9c-3.9,9.1,8.5,32.9,19.9,40.2l21.9-2.9L5.7,231.5c0,0,42.9,30.1,101.8,49.1
	c40.3,13,95.7,14.7,95.7,14.7l30.2-152.7l16.1,15.2C262.8,158.6,286.8,146.6,289,136.9z"/>
<path class="st8" d="M564.7,130.7c-3.3-9.6-43.4-48.4-61.7-52.3c-11-2.4-53.1-1.7-53.4,5.5c-1.2,31-52.3,41.3-66.9,16.9
	c-3.7-6.2-41.1,13.2-49.6,20.5c-14.3,12.2-31.1,65.3-29.5,75.3c1.5,9.6,24.3,23,37.6,23.1l16.8-13.9l19.8,151.9
	c0,0,51.5,2.7,110.6-12.2c40.5-10.2,87.5-37.8,87.5-37.8l-54.6-143.1l21.4,4.3C554.2,162.4,567.9,139.9,564.7,130.7z"/>
</svg>
