<?xml version="1.0" encoding="utf-8"?>
<!-- Generator: Adobe Illustrator 23.0.1, SVG Export Plug-In . SVG Version: 6.00 Build 0)  -->
<svg version="1.1" id="Layer_1" xmlns="http://www.w3.org/2000/svg" xmlns:xlink="http://www.w3.org/1999/xlink" x="0px" y="0px"
	 viewBox="0 0 792 612" style="enable-background:new 0 0 792 612;" xml:space="preserve">
<style type="text/css">
	.st0{display:none;fill:#EFE914;stroke:#FFFFFF;stroke-width:1.4744;stroke-miterlimit:10;}
	.st1{display:none;fill:#2F5EE0;stroke:#FFFFFF;stroke-width:1.4744;stroke-miterlimit:10;}
	.st2{display:none;fill:#2F5EE0;}
	.st3{display:none;fill:#EFE914;}
	.st4{fill:#2F5EE0;}
	.st5{display:none;fill:#2F5EE0;stroke:#000000;stroke-width:4.4232;stroke-miterlimit:10;}
	.st6{display:none;fill:#EF1616;}
	.st7{display:none;fill:#2F5EE0;stroke:#000000;stroke-width:3;stroke-miterlimit:10;}
</style>
<path class="st0" d="M-489.78,30.76c2.31-4,8.09-4,10.4,0l23.13,40.06l23.13,40.06c2.31,4-0.58,9.01-5.2,9.01h-46.26h-46.26
	c-4.62,0-7.51-5-5.2-9.01l23.13-40.06L-489.78,30.76z"/>
<path class="st0" d="M-359.67,30.76c2.31-4,8.09-4,10.4,0l23.13,40.06l23.13,40.06c2.31,4-0.58,9.01-5.2,9.01h-46.26h-46.26
	c-4.62,0-7.51-5-5.2-9.01l23.13-40.06L-359.67,30.76z"/>
<path class="st1" d="M-191.62,118.55h-65.47c-6.6,0-12-5.4-12-12V41.09c0-6.6,5.4-12,12-12h65.47c6.6,0,12,5.4,12,12v65.47
	C-179.62,113.15-185.02,118.55-191.62,118.55z"/>
<path class="st1" d="M-61.51,118.55h-65.47c-6.6,0-12-5.4-12-12V41.09c0-6.6,5.4-12,12-12h65.47c6.6,0,12,5.4,12,12v65.47
	C-49.51,113.15-54.91,118.55-61.51,118.55z"/>
<path class="st2" d="M423.35,956.06H218.19c-21.23,0-38.61-17.37-38.61-38.61V712.3c0-21.23,17.37-38.61,38.61-38.61h205.15
	c21.23,0,38.61,17.37,38.61,38.61v205.15C461.95,938.68,444.58,956.06,423.35,956.06z"/>
<path class="st0" d="M-96.58,165.18c-2.31-4-8.09-4-10.4,0l-23.13,40.06l-23.13,40.06c-2.31,4,0.58,9.01,5.2,9.01h46.26h46.26
	c4.62,0,7.51-5,5.2-9.01l-23.13-40.06L-96.58,165.18z"/>
<path class="st0" d="M-226.69,165.18c-2.31-4-8.09-4-10.4,0l-23.13,40.06l-23.13,40.06c-2.31,4,0.58,9.01,5.2,9.01h46.26h46.26
	c4.62,0,7.51-5,5.2-9.01l-23.13-40.06L-226.69,165.18z"/>
<path class="st1" d="M-394.74,252.97h65.47c6.6,0,12-5.4,12-12v-65.47c0-6.6-5.4-12-12-12h-65.47c-6.6,0-12,5.4-12,12v65.47
	C-406.74,247.57-401.34,252.97-394.74,252.97z"/>
<path class="st1" d="M-524.85,252.97h65.47c6.6,0,12-5.4,12-12v-65.47c0-6.6-5.4-12-12-12h-65.47c-6.6,0-12,5.4-12,12v65.47
	C-536.85,247.57-531.45,252.97-524.85,252.97z"/>
<path class="st0" d="M-489.78,299.6c2.31-4,8.09-4,10.4,0l23.13,40.06l23.13,40.06c2.31,4-0.58,9.01-5.2,9.01h-46.26h-46.26
	c-4.62,0-7.51-5-5.2-9.01l23.13-40.06L-489.78,299.6z"/>
<path class="st0" d="M-359.67,299.6c2.31-4,8.09-4,10.4,0l23.13,40.06l23.13,40.06c2.31,4-0.58,9.01-5.2,9.01h-46.26h-46.26
	c-4.62,0-7.51-5-5.2-9.01l23.13-40.06L-359.67,299.6z"/>
<path class="st1" d="M-61.51,387.4h-65.47c-6.6,0-12-5.4-12-12v-65.47c0-6.6,5.4-12,12-12h65.47c6.6,0,12,5.4,12,12v65.47
	C-49.51,382-54.91,387.4-61.51,387.4z"/>
<path class="st0" d="M-96.58,434.02c-2.31-4-8.09-4-10.4,0l-23.13,40.06l-23.13,40.06c-2.31,4,0.58,9.01,5.2,9.01h46.26h46.26
	c4.62,0,7.51-5,5.2-9.01l-23.13-40.06L-96.58,434.02z"/>
<path class="st3" d="M675.92-182.14c-2.12-3.68-7.44-3.68-9.56,0l-21.26,36.83l-21.26,36.83c-2.13,3.68,0.53,8.28,4.78,8.28h42.52
	h42.52c4.25,0,6.91-4.6,4.78-8.28l-21.26-36.83L675.92-182.14z"/>
<path class="st3" d="M1051.71,599.91c-9.77-16.91-34.18-16.91-43.94,0l-97.71,169.23l-97.71,169.23
	c-9.77,16.91,2.44,38.06,21.97,38.06h195.41h195.41c19.53,0,31.74-21.14,21.97-38.06l-97.71-169.23L1051.71,599.91z"/>
<path class="st3" d="M406.38,134.03c-9.59-16.61-33.55-16.61-43.14,0l-95.92,166.15l-95.92,166.15
	c-9.59,16.61,2.4,37.36,21.57,37.36h191.85h191.85c19.17,0,31.16-20.76,21.57-37.36l-95.92-166.15L406.38,134.03z"/>
<path class="st1" d="M-394.74,521.82h65.47c6.6,0,12-5.4,12-12v-65.47c0-6.6-5.4-12-12-12h-65.47c-6.6,0-12,5.4-12,12v65.47
	C-406.74,516.42-401.34,521.82-394.74,521.82z"/>
<path class="st4" d="M242.9,497.55h306.2c21.15,0,38.45-17.3,38.45-38.45V152.9c0-21.15-17.3-38.45-38.45-38.45H242.9
	c-21.15,0-38.45,17.3-38.45,38.45v306.2C204.45,480.25,221.75,497.55,242.9,497.55z"/>
<line class="st5" x1="-271.23" y1="388.73" x2="-177.48" y2="388.73"/>
<circle class="st6" cx="405.56" cy="297.93" r="171.66"/>
<circle class="st6" cx="354.67" cy="-142.55" r="44.21"/>
<circle class="st6" cx="829.38" cy="-142.55" r="44.21"/>
<line class="st7" x1="452.06" y1="-100.21" x2="561.04" y2="-100.21"/>
</svg>
